<svg width="800" height="800" viewBox="0 0 800 800" fill="none" xmlns="http://www.w3.org/2000/svg">
  <g stroke="#ff9a3c" stroke-opacity="0.75" stroke-width="1.4" stroke-linecap="round" stroke-linejoin="round">
    <path d="M40 90 H220 L300 170 V260 L360 320 H480 L560 240"/>
    <path d="M120 520 H260 L320 460 H440 L520 540 L640 540"/>
    <path d="M520 80 L520 180 L600 260 L700 260"/>
    <path d="M600 380 L520 380 L480 440 L420 440 L360 520"/>
    <path d="M680 600 L560 600 L500 660 L420 660"/>
    <path d="M320 120 L420 120 L480 60 L600 60"/>
    <path d="M420 320 L520 320 L600 360"/>
  </g>
  <g fill="#ffd1a1" fill-opacity="0.8">
    <circle cx="40" cy="90" r="3"/>
    <circle cx="220" cy="90" r="3"/>
    <circle cx="300" cy="170" r="3"/>
    <circle cx="360" cy="320" r="3"/>
    <circle cx="560" cy="240" r="3"/>
    <circle cx="120" cy="520" r="3"/>
    <circle cx="320" cy="460" r="3"/>
    <circle cx="520" cy="540" r="3"/>
    <circle cx="640" cy="540" r="3"/>
    <circle cx="520" cy="80" r="3"/>
    <circle cx="600" cy="260" r="3"/>
    <circle cx="600" cy="380" r="3"/>
    <circle cx="360" cy="520" r="3"/>
    <circle cx="680" cy="600" r="3"/>
    <circle cx="500" cy="660" r="3"/>
    <circle cx="600" cy="60" r="3"/>
    <circle cx="420" cy="180" r="3"/>
    <circle cx="520" cy="320" r="3"/>
  </g>
</svg>
